<svg width="22" height="50" viewBox="0 0 22 50" fill="none" xmlns="http://www.w3.org/2000/svg">
<path d="M9.10138 4.58333L2.18916 10.8863C1.80741 11.2345 1.22333 11.2345 0.841574 10.8863L0.325962 10.4162C-0.108978 10.0196 -0.108978 9.33495 0.325962 8.93834L9.84183 0.261139C10.2236 -0.0869675 10.8077 -0.0869675 11.1894 0.261139L20.7053 8.93834C21.1402 9.33495 21.1402 10.0196 20.7053 10.4162L20.1897 10.8863C19.8079 11.2345 19.2238 11.2345 18.8421 10.8863L11.9299 4.58333L11.9299 48.6467C11.9299 49.199 11.4822 49.6467 10.9299 49.6467H10.1014C9.54909 49.6467 9.10138 49.199 9.10138 48.6467L9.10138 4.58333Z" fill="#E15544"/>
</svg>
