<svg width="22" height="55" viewBox="0 0 22 55" fill="none" xmlns="http://www.w3.org/2000/svg">
<path d="M9.17365 5.014L2.29582 11.9128C1.90505 12.3048 1.27022 12.3048 0.87945 11.9128L0.291771 11.3233C-0.0973184 10.9331 -0.0973184 10.3016 0.291771 9.91129L9.87971 0.294086C10.2705 -0.0978737 10.9053 -0.0978737 11.2961 0.294086L20.884 9.91129C21.2731 10.3016 21.2731 10.9331 20.884 11.3233L20.2963 11.9128C19.9056 12.3048 19.2707 12.3048 18.88 11.9128L12.0021 5.014L12.0021 53.5837C12.0021 54.136 11.5544 54.5837 11.0021 54.5837H10.1736C9.62136 54.5837 9.17365 54.136 9.17365 53.5837L9.17365 5.014Z" fill="#02F4BF"/>
</svg>
