<svg width="24" height="20" viewBox="0 0 24 20" fill="none" xmlns="http://www.w3.org/2000/svg">
<path d="M21.2985 0H2.3665C1.06493 0 0.0118325 1.125 0.0118325 2.5L0 17.5C0 18.875 1.06493 20 2.3665 20H21.2985C22.6001 20 23.665 18.875 23.665 17.5V2.5C23.665 1.125 22.6001 0 21.2985 0ZM20.8252 5.3125L12.4596 10.8375C12.081 11.0875 11.584 11.0875 11.2054 10.8375L2.83981 5.3125C2.54399 5.1125 2.3665 4.775 2.3665 4.4125C2.3665 3.575 3.23028 3.075 3.90473 3.5125L11.8325 8.75L19.7603 3.5125C20.4348 3.075 21.2985 3.575 21.2985 4.4125C21.2985 4.775 21.1211 5.1125 20.8252 5.3125Z" fill="#02F4BF"/>
</svg>
