<svg width="22" height="55" viewBox="0 0 22 55" fill="none" xmlns="http://www.w3.org/2000/svg">
<path d="M12.0021 49.5697L18.88 42.6709C19.2707 42.279 19.9056 42.279 20.2963 42.6709L20.884 43.2604C21.2731 43.6507 21.2731 44.2822 20.884 44.6724L11.2961 54.2897C10.9053 54.6816 10.2705 54.6816 9.87971 54.2897L0.29177 44.6724C-0.0973181 44.2822 -0.0973183 43.6507 0.29177 43.2604L0.87945 42.6709C1.27022 42.279 1.90505 42.279 2.29582 42.6709L9.17364 49.5697L9.17365 1C9.17365 0.447716 9.62136 0 10.1736 0L11.0021 0C11.5544 0 12.0021 0.447715 12.0021 1L12.0021 49.5697Z" fill="#02F4BF"/>
</svg>
