<svg width="60" height="60" viewBox="0 0 60 60" fill="none" xmlns="http://www.w3.org/2000/svg">
<g clip-path="url(#clip0_77499_1709)">
<path d="M7.9 9.80005V50.3C3 44.9 0 37.8 0 30C0 22.2 3 15.1 7.9 9.80005Z" fill="#02F4BF"/>
<path d="M11.0996 14.2L28.3996 48.9H11.0996V14.2Z" fill="#02F4BF"/>
<path d="M30 45.0001L13 11.1001H47L30 45.0001Z" fill="#02F4BF"/>
<path d="M30 0C37.8 0 44.9001 3 50.2001 7.9H9.80005C15.1 3 22.2 0 30 0Z" fill="#02F4BF"/>
<path d="M48.8996 48.9H31.5996L48.8996 14.2V48.9Z" fill="#02F4BF"/>
<path d="M50.2001 52.1001C44.9001 57.0001 37.8 60.0001 30 60.0001C22.2 60.0001 15.1 57.0001 9.80005 52.1001H50.2001Z" fill="#02F4BF"/>
<path d="M52.0996 50.2001V9.80005C56.9996 15.1 59.9996 22.2 59.9996 30C59.9996 37.8 56.9996 44.9001 52.0996 50.2001Z" fill="#02F4BF"/>
<path d="M11.0996 14.2002L28.3996 48.9002H11.0996V14.2002Z" fill="#02F4BF"/>
<path d="M30 45.0001L13 11.1001H47L30 45.0001Z" fill="#02F4BF"/>
<path d="M31.5996 48.9002L48.8996 14.2002V48.9002H31.5996Z" fill="#02F4BF"/>
<path d="M13 11.1001H47L30 45.0001L13 11.1001Z" fill="#02F4BF"/>
</g>
<defs>
<clipPath id="clip0_77499_1709">
<rect width="60" height="60" fill="white"/>
</clipPath>
</defs>
</svg>
